<svg width="74" height="75" viewBox="0 0 74 75" fill="none" xmlns="http://www.w3.org/2000/svg">
    <path opacity=".7" fill-rule="evenodd" clip-rule="evenodd" d="M13.875 29.688c-1.696 0-3.084-1.407-3.084-3.125v-6.25H4.625c-1.696 0-3.083-1.407-3.083-3.125 0-1.72 1.387-3.125 3.083-3.125h6.166v-6.25c0-1.72 1.388-3.125 3.084-3.125 1.696 0 3.083 1.406 3.083 3.125v6.25h6.167c1.696 0 3.083 1.406 3.083 3.124 0 1.72-1.387 3.125-3.083 3.125h-6.167v6.25c0 1.72-1.387 3.125-3.083 3.125zm19.74 10.937c1.652-2.9 4.705-4.688 8.01-4.688 3.305 0 6.358 1.787 8.01 4.688a9.485 9.485 0 0 1 0 9.375c-1.652 2.9-4.705 4.688-8.01 4.688-3.305 0-6.358-1.787-8.01-4.688a9.485 9.485 0 0 1 0-9.375zM66.29 20.312h-9.774l-3.823-4.218a6.1 6.1 0 0 0-4.533-2.032H28.428c.524.938.863 1.97.863 3.126 0 3.437-2.774 6.25-6.166 6.25H20.04v3.125c0 3.437-2.774 6.25-6.166 6.25-1.141 0-2.159-.344-3.084-.876v32.126c0 3.437 2.775 6.25 6.167 6.25h49.334c3.391 0 6.166-2.813 6.166-6.25v-37.5c0-3.438-2.775-6.25-6.166-6.25zm-40.083 25c0 8.626 6.907 15.626 15.417 15.626s15.416-7 15.416-15.626c0-8.624-6.906-15.624-15.416-15.624-8.51 0-15.417 7-15.417 15.625z" fill="#fff"/>
</svg>
