<svg width="16" height="16" viewBox="0 0 16 16" fill="none" xmlns="http://www.w3.org/2000/svg">
    <path fill-rule="evenodd" clip-rule="evenodd" d="M1.807 3.027a.664.664 0 0 1 0-.94c.26-.26.686-.26.946 0l10.874 10.886a.664.664 0 1 1-.94.94L10.873 12.1A7.922 7.922 0 0 1 8 12.647c-3.333 0-6.18-2.074-7.333-5A7.928 7.928 0 0 1 3.12 4.34L1.807 3.027zm9.526 4.62A3.335 3.335 0 0 0 8 4.313c-.34 0-.667.067-.98.16L5.573 3.027a7.888 7.888 0 0 1 9.76 4.613 7.868 7.868 0 0 1-2.12 3.02l-2.04-2.04c.094-.307.16-.633.16-.973zM8 10.98a3.335 3.335 0 0 1-3.333-3.333c0-.514.12-1 .326-1.427L6.04 7.267c-.02.12-.04.246-.04.38 0 1.106.893 2 2 2 .133 0 .253-.02.38-.047l1.047 1.047A3.209 3.209 0 0 1 8 10.98zm1.98-3.553a1.98 1.98 0 0 0-1.76-1.76l1.76 1.76z" fill="#9C9C9C"/>
</svg>
