<svg width="24" height="24" viewBox="0 0 16 16" fill="none" xmlns="http://www.w3.org/2000/svg">
    <path fill-rule="evenodd" clip-rule="evenodd" d="M7.327 5.333a1.997 1.997 0 1 1-3.993 0 1.997 1.997 0 1 1 3.993 0zm5.333 0a1.997 1.997 0 1 1-3.993 0 1.997 1.997 0 1 1 3.993 0zM5.333 8.667C3.78 8.667.667 9.447.667 11v1c0 .367.3.667.666.667h8c.367 0 .667-.3.667-.667v-1c0-1.553-3.113-2.333-4.667-2.333zm4.687.033c.233-.02.453-.033.647-.033 1.553 0 4.666.78 4.666 2.333v1c0 .367-.3.667-.666.667h-3.454c.074-.207.12-.434.12-.667v-1c0-.98-.526-1.72-1.286-2.273l-.007-.008c-.005-.007-.01-.014-.02-.02z" fill="#9C9C9C"/>
</svg>
