<svg width="24" height="24" viewBox="0 0 16 16" fill="none" xmlns="http://www.w3.org/2000/svg">
    <path fill-rule="evenodd" clip-rule="evenodd" d="M2 2.007h12c.733 0 1.333.6 1.333 1.333v9.32c0 .733-.6 1.333-1.333 1.333H1.987c-.727 0-1.32-.593-1.32-1.32v-2.006c0-.367.3-.667.666-.667.367 0 .667.3.667.667v1.346c0 .367.3.667.667.667h10.666c.367 0 .667-.3.667-.667v-8.02c0-.366-.3-.666-.667-.666H2.667c-.367 0-.667.3-.667.666v1.34C2 5.7 1.7 6 1.333 6a.669.669 0 0 1-.666-.667V3.34c0-.733.6-1.333 1.333-1.333zM9.76 8.24 7.9 10.1a.333.333 0 0 1-.567-.24V8.667h-6A.669.669 0 0 1 .667 8c0-.367.3-.667.666-.667h6V6.14c0-.3.36-.447.567-.233l1.86 1.86a.33.33 0 0 1 0 .473z" fill="#ff768e"/>
</svg>
